<svg width="54" height="48" viewBox="0 0 54 48" fill="none" xmlns="http://www.w3.org/2000/svg"><path d="M20.974 48c11.412 0 20.663-9.251 20.663-20.664 0-11.412-9.251-20.664-20.663-20.664C9.56 6.672.31 15.924.31 27.336.31 38.75 9.56 48 20.974 48Z" fill="#ECF5E1"/><path d="m21.207 43.308-.262-.447C16.942 36.04 6.303 21.564 6.195 21.42l-.153-.209 3.624-3.582L21.14 25.64C28.364 16.266 35.103 9.827 39.5 6.067 44.309 1.954 47.439.061 47.47.043L47.543 0h6.148l-.587.523c-15.105 13.454-31.476 42.048-31.64 42.335l-.256.45Z" fill="#3E933E"/></svg>