<svg width="20" height="20" viewBox="0 0 20 20" fill="none" xmlns="http://www.w3.org/2000/svg">
<path d="M7.28511 7.2349C6.39084 7.99477 6.06313 9.38058 6.8353 10.4923C7.55789 11.5327 8.46816 12.4427 9.50824 13.165C10.6201 13.937 12.0058 13.6092 12.7656 12.7149L12.7741 12.7188C13.7445 13.1684 14.7753 13.4765 15.8333 13.6336V15.8333H15.8324H15.8301C9.18458 15.8427 4.15957 10.7592 4.16667 4.16966V4.16667H6.36614L6.36628 4.16764C6.52333 5.22554 6.83134 6.25545 7.28095 7.2259L7.28511 7.2349ZM15.8324 17.5H16.6667C17.1269 17.5 17.5 17.1269 17.5 16.6667V12.9147C17.5 12.5017 17.1975 12.1511 16.789 12.0905L16.0772 11.9848C15.1769 11.8512 14.3004 11.5891 13.4746 11.2065L12.8472 10.9159C12.4837 10.7475 12.0517 10.8617 11.8188 11.1877L11.5348 11.5853C11.2859 11.9338 10.8107 12.0403 10.4588 11.796C9.58199 11.1871 8.81341 10.4187 8.20418 9.54158C7.95984 9.18974 8.06629 8.71449 8.41483 8.46558L8.81233 8.18172C9.13841 7.94884 9.25258 7.51684 9.08416 7.15325L8.79316 6.52527C8.41058 5.6995 8.14852 4.82311 8.01488 3.92291L7.90919 3.21097C7.84855 2.80247 7.49787 2.5 7.0849 2.5H3.33334C2.87311 2.5 2.50001 2.8731 2.50001 3.33333V4.16786C2.49191 11.6732 8.25852 17.5107 15.8324 17.5Z" fill="#3D523D"/>
</svg>
