<svg width="61" height="71" viewBox="0 0 61 71" fill="none" xmlns="http://www.w3.org/2000/svg">
<path d="M43.6666 37.0002C34.4666 37.0002 26.9999 44.4668 26.9999 53.6668C26.9999 62.8668 34.4666 70.3335 43.6666 70.3335C52.8666 70.3335 60.3333 62.8668 60.3333 53.6668C60.3333 44.4668 52.8666 37.0002 43.6666 37.0002ZM49.1666 61.5002L41.9999 54.3335V43.6668H45.3333V52.9668L51.4999 59.1335L49.1666 61.5002ZM46.9999 7.00016H36.3999C34.9999 3.1335 31.3333 0.333496 26.9999 0.333496C22.6666 0.333496 18.9999 3.1335 17.5999 7.00016H6.99992C3.33325 7.00016 0.333252 10.0002 0.333252 13.6668V63.6668C0.333252 67.3335 3.33325 70.3335 6.99992 70.3335H27.3666C25.3999 68.4335 23.7999 66.1668 22.6332 63.6668H6.99992V13.6668H13.6666V23.6668H40.3333V13.6668H46.9999V30.6002C49.3666 30.9335 51.5999 31.6335 53.6666 32.6002V13.6668C53.6666 10.0002 50.6666 7.00016 46.9999 7.00016ZM26.9999 13.6668C25.1666 13.6668 23.6666 12.1668 23.6666 10.3335C23.6666 8.50016 25.1666 7.00016 26.9999 7.00016C28.8333 7.00016 30.3333 8.50016 30.3333 10.3335C30.3333 12.1668 28.8333 13.6668 26.9999 13.6668Z" fill="#3E933E"/>
</svg>
