<svg width="21" height="19" viewBox="0 0 21 19" fill="none" xmlns="http://www.w3.org/2000/svg">
    <path
        d="M12.4502 8.55H16.2056C16.7243 8.55 17.1442 8.9756 17.1442 9.5C17.1442 10.0244 16.7243 10.45 16.2056 10.45H11.5116C11.3877 10.4492 11.265 10.4241 11.1507 10.3759C11.0364 10.3278 10.9327 10.2576 10.8456 10.1694C10.7585 10.0812 10.6895 9.97661 10.6428 9.86176C10.596 9.74691 10.5723 9.62397 10.573 9.5V3.8C10.573 3.2756 10.9929 2.85 11.5116 2.85C12.0303 2.85 12.4502 3.2756 12.4502 3.8V8.55ZM18.1502 2.78255C19.9171 4.57124 20.9053 6.98581 20.8995 9.5C20.8995 14.4229 17.1998 18.4709 12.4602 18.9521C11.9382 19.0051 11.5116 18.5747 11.5116 18.05C11.5116 17.5253 11.9392 17.1064 12.4596 17.04C16.1599 16.5684 19.0223 13.3722 19.0223 9.5C19.0272 7.4884 18.2362 5.55654 16.8221 4.12585C16.1292 3.4207 15.3027 2.8607 14.3909 2.47853C13.4791 2.09636 12.5003 1.89969 11.5116 1.9C8.14485 1.9 5.29484 4.142 4.34199 7.2314L5.62639 6.35455C5.7285 6.28484 5.84346 6.23614 5.96457 6.2113C6.08567 6.18645 6.21051 6.18595 6.33182 6.20982C6.45312 6.23369 6.56846 6.28146 6.67113 6.35034C6.7738 6.41923 6.86172 6.50785 6.92979 6.61105C7.06914 6.82012 7.12065 7.07561 7.07319 7.32233C7.02573 7.56905 6.88311 7.78724 6.67615 7.92965L3.56299 10.0548C3.4609 10.1245 3.34594 10.1732 3.22483 10.1981C3.10373 10.2229 2.97889 10.2234 2.85758 10.1995C2.73628 10.1756 2.62094 10.1279 2.51827 10.059C2.4156 9.9901 2.32768 9.90147 2.25959 9.7983L0.161045 6.6481C0.0214041 6.43896 -0.0302683 6.18325 0.0172051 5.93629C0.0646766 5.68934 0.207471 5.47101 0.414695 5.32855C0.516801 5.25884 0.63176 5.21014 0.752866 5.1853C0.873972 5.16045 0.998812 5.15995 1.12012 5.18382C1.24142 5.20769 1.35676 5.25546 1.45943 5.32434C1.5621 5.39323 1.65002 5.48185 1.71809 5.58505L2.51514 6.7811C3.66939 2.8595 7.26039 0 11.5116 0C14.1042 0 16.4516 1.064 18.1502 2.78255Z"
        fill="#3E933E" />
</svg>
