<svg width="68" height="68" viewBox="0 0 68 68" fill="none" xmlns="http://www.w3.org/2000/svg">
<path d="M34.0001 67.3332C15.5901 67.3332 0.666748 52.4098 0.666748 33.9998C0.666748 15.5898 15.5901 0.666504 34.0001 0.666504C52.4101 0.666504 67.3334 15.5898 67.3334 33.9998C67.3334 52.4098 52.4101 67.3332 34.0001 67.3332ZM34.0001 60.6665C41.0724 60.6665 47.8554 57.8568 52.8564 52.8562C57.8571 47.8552 60.6667 41.0722 60.6667 33.9998C60.6667 26.9274 57.8571 20.1446 52.8564 15.1437C47.8554 10.1427 41.0724 7.33317 34.0001 7.33317C26.9276 7.33317 20.1449 10.1427 15.1439 15.1437C10.1429 20.1446 7.33341 26.9274 7.33341 33.9998C7.33341 41.0722 10.1429 47.8552 15.1439 52.8562C20.1449 57.8568 26.9276 60.6665 34.0001 60.6665ZM34.0001 27.3332C34.8841 27.3332 35.7321 27.6845 36.3571 28.3095C36.9821 28.9345 37.3334 29.7825 37.3334 30.6665V47.3332C37.3334 48.2172 36.9821 49.0652 36.3571 49.6902C35.7321 50.3152 34.8841 50.6665 34.0001 50.6665C33.1161 50.6665 32.2681 50.3152 31.6431 49.6902C31.0181 49.0652 30.6667 48.2172 30.6667 47.3332V30.6665C30.6667 29.7825 31.0181 28.9345 31.6431 28.3095C32.2681 27.6845 33.1161 27.3332 34.0001 27.3332ZM34.0001 23.9998C33.1161 23.9998 32.2681 23.6486 31.6431 23.0235C31.0181 22.3984 30.6667 21.5506 30.6667 20.6665C30.6667 19.7824 31.0181 18.9346 31.6431 18.3095C32.2681 17.6844 33.1161 17.3332 34.0001 17.3332C34.8841 17.3332 35.7321 17.6844 36.3571 18.3095C36.9821 18.9346 37.3334 19.7824 37.3334 20.6665C37.3334 21.5506 36.9821 22.3984 36.3571 23.0235C35.7321 23.6486 34.8841 23.9998 34.0001 23.9998Z" fill="#A34C1D"/>
</svg>
