<svg viewBox="0 0 20 20" fill="none" xmlns="http://www.w3.org/2000/svg">
<path d="M9.99984 18.3334C5.39734 18.3334 1.6665 14.6026 1.6665 10.0001C1.6665 5.39758 5.39734 1.66675 9.99984 1.66675C14.6023 1.66675 18.3332 5.39758 18.3332 10.0001C18.3332 14.6026 14.6023 18.3334 9.99984 18.3334ZM9.99984 16.6667C11.7679 16.6667 13.4637 15.9643 14.7139 14.7142C15.9641 13.4639 16.6665 11.7682 16.6665 10.0001C16.6665 8.23197 15.9641 6.53628 14.7139 5.28604C13.4637 4.03579 11.7679 3.33341 9.99984 3.33341C8.23173 3.33341 6.53604 4.03579 5.2858 5.28604C4.03555 6.53628 3.33317 8.23197 3.33317 10.0001C3.33317 11.7682 4.03555 13.4639 5.2858 14.7142C6.53604 15.9643 8.23173 16.6667 9.99984 16.6667ZM9.99984 8.33341C10.2208 8.33341 10.4328 8.42125 10.5891 8.5775C10.7453 8.73375 10.8332 8.94575 10.8332 9.16675V13.3334C10.8332 13.5544 10.7453 13.7664 10.5891 13.9227C10.4328 14.0789 10.2208 14.1667 9.99984 14.1667C9.77884 14.1667 9.56684 14.0789 9.41059 13.9227C9.25434 13.7664 9.1665 13.5544 9.1665 13.3334V9.16675C9.1665 8.94575 9.25434 8.73375 9.41059 8.5775C9.56684 8.42125 9.77884 8.33341 9.99984 8.33341ZM9.99984 7.50008C9.77884 7.50008 9.56684 7.41228 9.41059 7.25601C9.25434 7.09972 9.1665 6.88776 9.1665 6.66675C9.1665 6.44573 9.25434 6.23377 9.41059 6.07749C9.56684 5.92121 9.77884 5.83341 9.99984 5.83341C10.2208 5.83341 10.4328 5.92121 10.5891 6.07749C10.7453 6.23377 10.8332 6.44573 10.8332 6.66675C10.8332 6.88776 10.7453 7.09972 10.5891 7.25601C10.4328 7.41228 10.2208 7.50008 9.99984 7.50008Z" fill="#3D523D"/>
</svg>
