<svg width="40" height="41" viewBox="0 0 40 41" fill="none" xmlns="http://www.w3.org/2000/svg">
<path d="M33.3333 10.5C33.3333 8.52219 32.7468 6.58879 31.648 4.9443C30.5491 3.29981 28.9874 2.01809 27.1601 1.26121C25.3328 0.504333 23.3222 0.306299 21.3824 0.692152C19.4425 1.078 17.6607 2.03041 16.2622 3.42894C14.8637 4.82746 13.9113 6.60929 13.5254 8.5491C13.1396 10.4889 13.3376 12.4996 14.0945 14.3268C14.8513 16.1541 16.1331 17.7159 17.7776 18.8147C19.422 19.9135 21.3554 20.5 23.3333 20.5C25.9846 20.4974 28.5266 19.4429 30.4014 17.5681C32.2762 15.6934 33.3306 13.1514 33.3333 10.5ZM16.6666 10.5C16.6666 9.18146 17.0576 7.89253 17.7901 6.7962C18.5227 5.69987 19.5639 4.84539 20.782 4.34081C22.0002 3.83622 23.3407 3.7042 24.6339 3.96144C25.9271 4.21867 27.115 4.85361 28.0473 5.78596C28.9797 6.71831 29.6146 7.9062 29.8718 9.1994C30.1291 10.4926 29.997 11.8331 29.4925 13.0512C28.9879 14.2694 28.1334 15.3106 27.0371 16.0431C25.9407 16.7757 24.6518 17.1667 23.3333 17.1667C21.5651 17.1667 19.8695 16.4643 18.6192 15.2141C17.369 13.9638 16.6666 12.2681 16.6666 10.5Z" fill="#76482C"/>
<path d="M28.3334 23.8334H18.3334C15.2403 23.8369 12.2749 25.0672 10.0877 27.2544C7.90057 29.4415 6.67028 32.4069 6.66675 35.5V38.8334C6.66675 39.2754 6.84234 39.6993 7.1549 40.0119C7.46746 40.3244 7.89139 40.5 8.33341 40.5C8.77544 40.5 9.19936 40.3244 9.51193 40.0119C9.82449 39.6993 10.0001 39.2754 10.0001 38.8334V35.5C10.0027 33.2907 10.8816 31.1726 12.4438 29.6104C14.006 28.0482 16.1241 27.1694 18.3334 27.1667H28.3334C30.5427 27.1694 32.6608 28.0482 34.223 29.6104C35.7853 31.1726 36.6641 33.2907 36.6667 35.5V38.8334C36.6667 39.2754 36.8423 39.6993 37.1549 40.0119C37.4675 40.3244 37.8914 40.5 38.3334 40.5C38.7754 40.5 39.1994 40.3244 39.5119 40.0119C39.8245 39.6993 40.0001 39.2754 40.0001 38.8334V35.5C39.9966 32.4069 38.7663 29.4415 36.5791 27.2544C34.3919 25.0672 31.4265 23.8369 28.3334 23.8334Z" fill="#76482C"/>
<path d="M6.66667 12.1666C6.22464 12.1666 5.80072 12.3422 5.48816 12.6548C5.17559 12.9673 5 13.3913 5 13.8333V17.1666H1.66667C1.22464 17.1666 0.800716 17.3422 0.488155 17.6548C0.175595 17.9673 0 18.3913 0 18.8333C0 19.2753 0.175595 19.6992 0.488155 20.0118C0.800716 20.3244 1.22464 20.5 1.66667 20.5H5V23.8333C5 24.2753 5.17559 24.6992 5.48816 25.0118C5.80072 25.3244 6.22464 25.5 6.66667 25.5C7.10869 25.5 7.53262 25.3244 7.84518 25.0118C8.15774 24.6992 8.33333 24.2753 8.33333 23.8333V20.5H11.6667C12.1087 20.5 12.5326 20.3244 12.8452 20.0118C13.1577 19.6992 13.3333 19.2753 13.3333 18.8333C13.3333 18.3913 13.1577 17.9673 12.8452 17.6548C12.5326 17.3422 12.1087 17.1666 11.6667 17.1666H8.33333V13.8333C8.33333 13.3913 8.15774 12.9673 7.84518 12.6548C7.53262 12.3422 7.10869 12.1666 6.66667 12.1666Z" fill="#76482C"/>
</svg>
