<svg viewBox="0 0 20 20" fill="none" xmlns="http://www.w3.org/2000/svg">
	<path d="M6.64 3.33341H4.15008C3.92996 3.33341 3.71885 3.42121 3.5632 3.57749C3.40755 3.73377 3.3201 3.94573 3.3201 4.16675V5.83341C3.3201 6.05443 3.40755 6.26639 3.5632 6.42267C3.71885 6.57895 3.92996 6.66675 4.15008 6.66675H5.81002C6.03015 6.66675 6.24125 6.57895 6.39691 6.42267C6.55256 6.26639 6.64 6.05443 6.64 5.83341V3.33341ZM4.15838 8.33341V16.6376H5.81002V12.5001C5.81002 12.0581 5.98492 11.6342 6.29621 11.3216C6.60751 11.009 7.02973 10.8334 7.46997 10.8334H9.12992C9.57013 10.8334 9.99234 11.009 10.3037 11.3216C10.615 11.6342 10.7899 12.0581 10.7899 12.5001V16.6376H15.7805V8.33341H14.1098C13.4723 8.33341 12.8897 8.09258 12.4498 7.69675C11.9937 8.10748 11.4025 8.33425 10.7899 8.33341H9.12992C8.4925 8.33341 7.90986 8.09258 7.46997 7.69675C7.01393 8.10748 6.42266 8.33425 5.81002 8.33341H4.15838ZM2.49843 7.70508C2.23448 7.47066 2.02322 7.18252 1.87869 6.85982C1.73416 6.53712 1.65967 6.18724 1.66016 5.83341V4.16675C1.66016 3.50371 1.92249 2.86782 2.38944 2.39898C2.85639 1.93014 3.48971 1.66675 4.15008 1.66675H15.7697C16.4301 1.66675 17.0634 1.93014 17.5303 2.39898C17.9973 2.86782 18.2596 3.50371 18.2596 4.16675V5.83341C18.2596 6.56841 17.9442 7.23008 17.4404 7.68758V16.6376C17.4404 17.0796 17.2656 17.5035 16.9542 17.8161C16.6429 18.1287 16.2207 18.3042 15.7805 18.3042H9.4395C9.33741 18.3237 9.23383 18.3334 9.12992 18.3334H7.46997C7.3661 18.3334 7.26246 18.3237 7.16039 18.3042H4.15921C3.71897 18.3042 3.29675 18.1287 2.98545 17.8161C2.67415 17.5035 2.49926 17.0796 2.49926 16.6376V7.70425L2.49843 7.70508ZM9.12992 16.6384V12.5001H7.46997V16.6376H9.12992V16.6384ZM11.6198 3.33341H8.29994V5.83341C8.29994 6.05443 8.38742 6.26639 8.54304 6.42267C8.69866 6.57895 8.90981 6.66675 9.12992 6.66675H10.7899C11.01 6.66675 11.2211 6.57895 11.3767 6.42267C11.5324 6.26639 11.6198 6.05443 11.6198 5.83341V3.33341ZM13.2798 3.33341V5.83341C13.2798 6.05443 13.3673 6.26639 13.5229 6.42267C13.6785 6.57895 13.8896 6.66675 14.1098 6.66675H15.7697C15.9898 6.66675 16.201 6.57895 16.3566 6.42267C16.5122 6.26639 16.5997 6.05443 16.5997 5.83341V4.16675C16.5997 3.94573 16.5122 3.73377 16.3566 3.57749C16.201 3.42121 15.9898 3.33341 15.7697 3.33341H13.2798ZM13.2798 10.8334H14.1098C14.3299 10.8334 14.541 10.9212 14.6966 11.0775C14.8522 11.2337 14.9397 11.4457 14.9397 11.6667V14.1667C14.9397 14.3877 14.8522 14.5997 14.6966 14.756C14.541 14.9122 14.3299 15.0001 14.1098 15.0001H13.2798C13.0597 15.0001 12.8485 14.9122 12.6929 14.756C12.5373 14.5997 12.4498 14.3877 12.4498 14.1667V11.6667C12.4498 11.4457 12.5373 11.2337 12.6929 11.0775C12.8485 10.9212 13.0597 10.8334 13.2798 10.8334Z" fill="#3D523D"/>
</svg>
