<svg width="201" height="54" viewBox="0 0 201 54" fill="none" xmlns="http://www.w3.org/2000/svg"><path fill-rule="evenodd" clip-rule="evenodd" d="m24.29 14.893 2.63 7.818c-2.716 0.83 -4.921 1.856 -6.866 3.004l4.237 -10.82v-0.002Zm8.15 5.877L24.288 0 7.163 39.46C22.423 28.161 37.6 22.068 53.326 21.781c-6.883 -1.11 -13.955 -1.979 -20.886 -1.008v-0.004Z" fill="#73B91C"/><path fill-rule="evenodd" clip-rule="evenodd" d="M0 53.333h9.262c6.15 -7.727 12.45 -15.282 20.982 -20.237l8.175 20.237h7.718c-3.26 -8.195 -6.516 -16.39 -9.776 -24.584 5.324 -3.403 11.117 -4.928 16.967 -6.226C32.7 24.207 14.685 33.749 0.003 53.333H0Z" fill="#042E17"/><path d="M62.295 40.3h-4.584l9.17 -25.39h4.549L80.6 40.3h-4.69l-2.049 -5.87H64.38l-2.084 5.87Zm6.287 -17.817 -2.918 8.196h6.912l-2.917 -8.196a17.757 17.757 0 0 0 -0.313 -1.043 4.099 4.099 0 0 1 -0.208 -0.902 9.305 9.305 0 0 1 -0.243 0.902 17.91 17.91 0 0 1 -0.313 1.043Zm13.129 8.856c0 -1.667 0.335 -3.149 1.007 -4.445 0.694 -1.32 1.655 -2.362 2.883 -3.126 1.227 -0.765 2.65 -1.147 4.272 -1.147 1.459 0 2.709 0.325 3.75 0.973a5.01 5.01 0 0 1 2.189 2.64l-0.451 0.382 0.347 -3.474h3.925v16.29c0 1.899 -0.37 3.543 -1.112 4.932 -0.718 1.413 -1.748 2.49 -3.091 3.23 -1.32 0.764 -2.918 1.146 -4.793 1.146 -2.455 0 -4.469 -0.66 -6.044 -1.98 -1.574 -1.32 -2.5 -3.125 -2.778 -5.418h4.237c0.14 1.112 0.602 1.98 1.39 2.605 0.81 0.625 1.875 0.938 3.195 0.938 1.459 0 2.616 -0.428 3.473 -1.285 0.88 -0.834 1.32 -1.968 1.32 -3.404v-4.272l0.486 0.452c-0.417 1.088 -1.18 1.956 -2.292 2.605 -1.112 0.648 -2.397 0.972 -3.855 0.972 -1.621 0 -3.034 -0.37 -4.238 -1.111 -1.204 -0.741 -2.142 -1.76 -2.813 -3.057 -0.672 -1.297 -1.007 -2.778 -1.007 -4.446Zm4.272 -0.104c0 0.973 0.185 1.84 0.555 2.605a4.627 4.627 0 0 0 1.633 1.771c0.694 0.44 1.505 0.66 2.431 0.66 0.973 0 1.806 -0.208 2.5 -0.625a4.296 4.296 0 0 0 1.633 -1.771c0.394 -0.764 0.59 -1.644 0.59 -2.64 0 -0.996 -0.184 -1.852 -0.555 -2.57a4.074 4.074 0 0 0 -1.632 -1.737c-0.695 -0.416 -1.54 -0.625 -2.536 -0.625 -0.95 0 -1.771 0.22 -2.466 0.66a4.139 4.139 0 0 0 -1.598 1.737c-0.37 0.74 -0.555 1.586 -0.555 2.535Zm25.711 9.517c-1.691 0 -3.196 -0.382 -4.515 -1.146a8.441 8.441 0 0 1 -3.057 -3.196c-0.741 -1.366 -1.111 -2.929 -1.111 -4.689 0 -1.783 0.359 -3.357 1.076 -4.723 0.718 -1.366 1.725 -2.432 3.022 -3.196 1.297 -0.787 2.779 -1.18 4.446 -1.18 1.736 0 3.23 0.37 4.48 1.11a7.25 7.25 0 0 1 2.883 3.023c0.695 1.296 1.042 2.848 1.042 4.654v1.285l-14.726 0.035 0.069 -2.71h10.454c0 -1.18 -0.382 -2.13 -1.146 -2.848 -0.741 -0.717 -1.748 -1.076 -3.021 -1.076 -0.996 0 -1.841 0.208 -2.536 0.625 -0.671 0.417 -1.181 1.042 -1.528 1.875 -0.347 0.834 -0.521 1.853 -0.521 3.057 0 1.852 0.394 3.253 1.181 4.203 0.81 0.949 2.003 1.424 3.577 1.424 1.158 0 2.107 -0.22 2.848 -0.66 0.764 -0.44 1.262 -1.066 1.494 -1.876h3.925c-0.371 1.876 -1.297 3.346 -2.779 4.411 -1.459 1.065 -3.311 1.598 -5.557 1.598Zm15.895 -0.452h-4.238V23.142h3.925l0.348 2.223c0.532 -0.856 1.285 -1.528 2.257 -2.014a7.264 7.264 0 0 1 3.23 -0.73c2.154 0 3.775 0.637 4.863 1.91 1.111 1.274 1.667 3.01 1.667 5.21v10.56h-4.237v-9.552c0 -1.436 -0.325 -2.5 -0.973 -3.196 -0.648 -0.717 -1.528 -1.076 -2.64 -1.076 -1.319 0 -2.35 0.416 -3.091 1.25 -0.741 0.834 -1.111 1.945 -1.111 3.334v9.24Zm16.215 7.954V23.142h3.925l0.278 2.605c0.509 -0.995 1.297 -1.76 2.362 -2.292 1.065 -0.556 2.234 -0.834 3.508 -0.834 1.644 0 3.056 0.37 4.237 1.112 1.204 0.74 2.142 1.771 2.813 3.091 0.672 1.32 1.008 2.883 1.008 4.689 0 1.783 -0.313 3.369 -0.938 4.758 -0.625 1.39 -1.54 2.49 -2.744 3.3 -1.181 0.787 -2.628 1.18 -4.342 1.18 -1.273 0 -2.442 -0.242 -3.508 -0.729 -1.041 -0.486 -1.829 -1.157 -2.361 -2.014v10.246h-4.238Zm4.272 -16.533c0 1.02 0.197 1.922 0.591 2.71a4.665 4.665 0 0 0 1.667 1.875c0.741 0.44 1.598 0.66 2.57 0.66 0.996 0 1.853 -0.22 2.57 -0.66a4.432 4.432 0 0 0 1.633 -1.875c0.37 -0.788 0.556 -1.69 0.556 -2.71 0 -1.018 -0.186 -1.922 -0.556 -2.709a4.21 4.21 0 0 0 -1.633 -1.84c-0.717 -0.464 -1.574 -0.695 -2.57 -0.695 -0.972 0 -1.829 0.22 -2.57 0.66a4.425 4.425 0 0 0 -1.667 1.84c-0.394 0.788 -0.591 1.702 -0.591 2.744Zm16.225 -0.034c0 -1.783 0.394 -3.346 1.181 -4.69a8.338 8.338 0 0 1 3.265 -3.195c1.389 -0.764 2.964 -1.146 4.724 -1.146 1.783 0 3.357 0.382 4.723 1.146a8.325 8.325 0 0 1 3.265 3.196c0.788 1.343 1.181 2.906 1.181 4.689s-0.393 3.357 -1.181 4.723a8.397 8.397 0 0 1 -3.265 3.16c-1.366 0.765 -2.94 1.147 -4.723 1.147 -1.76 0 -3.335 -0.382 -4.724 -1.146a8.41 8.41 0 0 1 -3.265 -3.16c-0.787 -1.367 -1.181 -2.941 -1.181 -4.724Zm4.238 0c0 1.042 0.208 1.956 0.625 2.744 0.44 0.787 1.019 1.4 1.737 1.84 0.741 0.44 1.597 0.66 2.57 0.66 0.972 0 1.829 -0.22 2.57 -0.66a4.593 4.593 0 0 0 1.737 -1.84c0.416 -0.788 0.625 -1.702 0.625 -2.744 0 -1.066 -0.209 -1.98 -0.625 -2.744a4.594 4.594 0 0 0 -1.737 -1.841c-0.741 -0.44 -1.598 -0.66 -2.57 -0.66 -0.973 0 -1.829 0.22 -2.57 0.66 -0.718 0.44 -1.297 1.053 -1.737 1.84 -0.417 0.765 -0.625 1.68 -0.625 2.745Z" fill="#218838"/></svg>