<svg width="14" height="18" viewBox="0 0 14 18" fill="none" xmlns="http://www.w3.org/2000/svg">
<path d="M6.641 9.828H1C0.73478 9.828 0.48043 9.7226 0.29289 9.5351C0.10536 9.3476 0 9.0932 0 8.828C0 8.5628 0.10536 8.3084 0.29289 8.1209C0.48043 7.9334 0.73478 7.828 1 7.828H6.641L5.521 6.708C5.3387 6.51953 5.2377 6.26699 5.2398 6.00479C5.2419 5.74259 5.3469 5.4917 5.5322 5.30616C5.7175 5.12062 5.9682 5.01528 6.2304 5.01281C6.4926 5.01035 6.7453 5.11097 6.934 5.293L9.763 8.12C9.8563 8.2127 9.9304 8.3229 9.981 8.4443C10.0315 8.5657 10.0575 8.696 10.0575 8.8275C10.0575 8.959 10.0315 9.0893 9.981 9.2107C9.9304 9.3321 9.8563 9.4423 9.763 9.535L6.934 12.363C6.7447 12.5408 6.4936 12.6379 6.2339 12.6339C5.9742 12.6299 5.7263 12.525 5.5426 12.3414C5.3589 12.1578 5.2538 11.91 5.2496 11.6503C5.2454 11.3906 5.3423 11.1395 5.52 10.95L6.641 9.828ZM13 0C13.2652 0 13.5196 0.10536 13.7071 0.29289C13.8946 0.48043 14 0.73478 14 1V17C14 17.2652 13.8946 17.5196 13.7071 17.7071C13.5196 17.8946 13.2652 18 13 18C12.7348 18 12.4804 17.8946 12.2929 17.7071C12.1054 17.5196 12 17.2652 12 17V1C12 0.73478 12.1054 0.48043 12.2929 0.29289C12.4804 0.10536 12.7348 0 13 0Z" fill="#F06C6E"/>
</svg>
