<svg width="6" height="20" viewBox="0 0 6 20" fill="none" xmlns="http://www.w3.org/2000/svg">
<path d="M3 4C3.2652 4 3.5196 3.89464 3.7071 3.70711C3.8946 3.51957 4 3.26522 4 3C4 2.73478 3.8946 2.48043 3.7071 2.29289C3.5196 2.10536 3.2652 2 3 2C2.7348 2 2.4804 2.10536 2.2929 2.29289C2.1054 2.48043 2 2.73478 2 3C2 3.26522 2.1054 3.51957 2.2929 3.70711C2.4804 3.89464 2.7348 4 3 4ZM3 6C2.2044 6 1.4413 5.68393 0.87868 5.12132C0.31607 4.55871 0 3.79565 0 3C0 2.20435 0.31607 1.44129 0.87868 0.87868C1.4413 0.31607 2.2044 0 3 0C3.7956 0 4.5587 0.31607 5.1213 0.87868C5.6839 1.44129 6 2.20435 6 3C6 3.79565 5.6839 4.55871 5.1213 5.12132C4.5587 5.68393 3.7956 6 3 6ZM3 20C2.2044 20 1.4413 19.6839 0.87868 19.1213C0.31607 18.5587 0 17.7956 0 17C0 16.2044 0.31607 15.4413 0.87868 14.8787C1.4413 14.3161 2.2044 14 3 14C3.7956 14 4.5587 14.3161 5.1213 14.8787C5.6839 15.4413 6 16.2044 6 17C6 17.7956 5.6839 18.5587 5.1213 19.1213C4.5587 19.6839 3.7956 20 3 20ZM3 18C3.2652 18 3.5196 17.8946 3.7071 17.7071C3.8946 17.5196 4 17.2652 4 17C4 16.7348 3.8946 16.4804 3.7071 16.2929C3.5196 16.1054 3.2652 16 3 16C2.7348 16 2.4804 16.1054 2.2929 16.2929C2.1054 16.4804 2 16.7348 2 17C2 17.2652 2.1054 17.5196 2.2929 17.7071C2.4804 17.8946 2.7348 18 3 18ZM3 13C2.2044 13 1.4413 12.6839 0.87868 12.1213C0.31607 11.5587 0 10.7956 0 10C0 9.2044 0.31607 8.4413 0.87868 7.87868C1.4413 7.31607 2.2044 7 3 7C3.7956 7 4.5587 7.31607 5.1213 7.87868C5.6839 8.4413 6 9.2044 6 10C6 10.7956 5.6839 11.5587 5.1213 12.1213C4.5587 12.6839 3.7956 13 3 13ZM3 11C3.2652 11 3.5196 10.8946 3.7071 10.7071C3.8946 10.5196 4 10.2652 4 10C4 9.7348 3.8946 9.4804 3.7071 9.2929C3.5196 9.1054 3.2652 9 3 9C2.7348 9 2.4804 9.1054 2.2929 9.2929C2.1054 9.4804 2 9.7348 2 10C2 10.2652 2.1054 10.5196 2.2929 10.7071C2.4804 10.8946 2.7348 11 3 11Z" fill="#8ABE96"/>
</svg>
