<svg width="6" height="20" viewBox="0 0 6 20" fill="none" xmlns="http://www.w3.org/2000/svg">
<path d="M3 6C2.2044 6 1.4413 5.68393 0.87868 5.12132C0.31607 4.55871 0 3.79565 0 3C0 2.20435 0.31607 1.44129 0.87868 0.87868C1.4413 0.31607 2.2044 0 3 0C3.7956 0 4.5587 0.31607 5.1213 0.87868C5.6839 1.44129 6 2.20435 6 3C6 3.79565 5.6839 4.55871 5.1213 5.12132C4.5587 5.68393 3.7956 6 3 6ZM3 20C2.2044 20 1.4413 19.6839 0.87868 19.1213C0.31607 18.5587 0 17.7956 0 17C0 16.2044 0.31607 15.4413 0.87868 14.8787C1.4413 14.3161 2.2044 14 3 14C3.7956 14 4.5587 14.3161 5.1213 14.8787C5.6839 15.4413 6 16.2044 6 17C6 17.7956 5.6839 18.5587 5.1213 19.1213C4.5587 19.6839 3.7956 20 3 20ZM3 13C2.2044 13 1.4413 12.6839 0.87868 12.1213C0.31607 11.5587 0 10.7956 0 10C0 9.2044 0.31607 8.4413 0.87868 7.87868C1.4413 7.31607 2.2044 7 3 7C3.7956 7 4.5587 7.31607 5.1213 7.87868C5.6839 8.4413 6 9.2044 6 10C6 10.7956 5.6839 11.5587 5.1213 12.1213C4.5587 12.6839 3.7956 13 3 13Z" fill="#3E933E"/>
</svg>
