<svg viewBox="0 0 20 20" fill="none" xmlns="http://www.w3.org/2000/svg">
<path d="M14.1665 7.50008C14.1665 6.39501 13.7275 5.33521 12.9461 4.55381C12.1648 3.7724 11.1049 3.33341 9.99984 3.33341C8.89475 3.33341 7.83496 3.7724 7.05356 4.55381C6.27215 5.33521 5.83317 6.39501 5.83317 7.50008C5.83317 8.93841 7.2165 11.6926 9.99984 15.5442C12.7832 11.6926 14.1665 8.93841 14.1665 7.50008ZM9.99984 18.3334C6.11067 13.2584 4.1665 9.64758 4.1665 7.50008C4.1665 5.95298 4.78109 4.46926 5.87505 3.37529C6.96901 2.28133 8.45275 1.66675 9.99984 1.66675C11.5469 1.66675 13.0307 2.28133 14.1246 3.37529C15.2186 4.46926 15.8332 5.95298 15.8332 7.50008C15.8332 9.64758 13.889 13.2584 9.99984 18.3334ZM9.99984 10.8334C9.11575 10.8334 8.26794 10.4822 7.64281 9.85708C7.0177 9.232 6.6665 8.38416 6.6665 7.50008C6.6665 6.61602 7.0177 5.76818 7.64281 5.14306C8.26794 4.51794 9.11575 4.16675 9.99984 4.16675C10.8839 4.16675 11.7318 4.51794 12.3568 5.14306C12.982 5.76818 13.3332 6.61602 13.3332 7.50008C13.3332 8.38416 12.982 9.232 12.3568 9.85708C11.7318 10.4822 10.8839 10.8334 9.99984 10.8334ZM9.99984 9.16675C10.4418 9.16675 10.8658 8.99116 11.1783 8.67858C11.4909 8.366 11.6665 7.94211 11.6665 7.50008C11.6665 7.05806 11.4909 6.63413 11.1783 6.32157C10.8658 6.00901 10.4418 5.83341 9.99984 5.83341C9.55784 5.83341 9.13392 6.00901 8.82134 6.32157C8.50875 6.63413 8.33317 7.05806 8.33317 7.50008C8.33317 7.94211 8.50875 8.366 8.82134 8.67858C9.13392 8.99116 9.55784 9.16675 9.99984 9.16675Z" fill="#3D523D"/>
</svg>
