<svg viewBox="0 0 20 20" fill="none" xmlns="http://www.w3.org/2000/svg">
<path d="M10.7883 6.15327V5.673V2.58325H14.2755V5.673V6.15327L12.5319 7.31566L10.7883 6.15327Z" stroke="#3D523D"/>
<path d="M12.0617 5.70924C12.0338 5.7091 12.0065 5.70143 11.9826 5.68704C11.9587 5.67265 11.9391 5.65208 11.926 5.6275C11.9128 5.60292 11.9065 5.57524 11.9078 5.54738C11.9091 5.51953 11.9178 5.49253 11.9332 5.46924L13.1719 3.61118C13.1961 3.58114 13.2306 3.56121 13.2687 3.5553C13.3069 3.54939 13.3458 3.55793 13.378 3.57924C13.4102 3.60055 13.4332 3.6331 13.4426 3.67051C13.452 3.70793 13.4471 3.74751 13.4289 3.7815C12.0973 5.78047 12.1794 5.70924 12.0617 5.70924ZM13.3004 5.70924C13.2085 5.70924 13.1187 5.682 13.0423 5.63096C12.9659 5.57992 12.9064 5.50737 12.8712 5.42249C12.8361 5.33761 12.8269 5.24421 12.8448 5.15411C12.8627 5.064 12.907 4.98123 12.9719 4.91627C13.0369 4.8513 13.1197 4.80706 13.2098 4.78914C13.2999 4.77121 13.3933 4.78041 13.4782 4.81557C13.563 4.85073 13.6356 4.91027 13.6866 4.98666C13.7377 5.06305 13.7649 5.15286 13.7649 5.24473C13.7649 5.36793 13.716 5.48608 13.6289 5.57319C13.5417 5.6603 13.4236 5.70924 13.3004 5.70924ZM13.3004 5.08989C13.2593 5.08989 13.2199 5.1062 13.1909 5.13524C13.1619 5.16428 13.1456 5.20366 13.1456 5.24473C13.1456 5.28579 13.1619 5.32518 13.1909 5.35422C13.2199 5.38325 13.2593 5.39957 13.3004 5.39957C13.3415 5.39957 13.3808 5.38325 13.4099 5.35422C13.4389 5.32518 13.4552 5.28579 13.4552 5.24473C13.4552 5.20366 13.4389 5.16428 13.4099 5.13524C13.3808 5.1062 13.3415 5.08989 13.3004 5.08989ZM12.0617 4.47054C11.9698 4.47054 11.88 4.44329 11.8036 4.39225C11.7272 4.34121 11.6677 4.26866 11.6325 4.18378C11.5974 4.0989 11.5882 4.0055 11.6061 3.9154C11.624 3.82529 11.6683 3.74252 11.7332 3.67756C11.7982 3.61259 11.881 3.56835 11.9711 3.55043C12.0612 3.53251 12.1546 3.54171 12.2394 3.57686C12.3243 3.61202 12.3969 3.67156 12.4479 3.74795C12.499 3.82434 12.5262 3.91415 12.5262 4.00602C12.5262 4.12922 12.4773 4.24737 12.3901 4.33448C12.303 4.4216 12.1849 4.47054 12.0617 4.47054ZM12.0617 3.85118C12.0206 3.85118 11.9812 3.86749 11.9522 3.89653C11.9232 3.92557 11.9068 3.96495 11.9068 4.00602C11.9068 4.04709 11.9232 4.08647 11.9522 4.11551C11.9812 4.14455 12.0206 4.16086 12.0617 4.16086C12.1027 4.16086 12.1421 4.14455 12.1712 4.11551C12.2002 4.08647 12.2165 4.04709 12.2165 4.00602C12.2165 3.96495 12.2002 3.92557 12.1712 3.89653C12.1421 3.86749 12.1027 3.85118 12.0617 3.85118Z" fill="#3D523D"/>
<path d="M11.8309 15.2887L12.4404 12.4712C12.4617 12.373 12.4642 12.2684 12.4473 12.1677C12.4304 12.0669 12.3958 11.9803 12.353 11.9132C12.3104 11.8462 12.2642 11.8056 12.2267 11.7832C12.1906 11.7617 12.1609 11.7558 12.1384 11.7557C12.1383 11.7557 12.1381 11.7557 12.138 11.7557L12.1387 11.0057C11.4767 11.0057 10.8901 10.9981 10.365 10.9913C7.67786 10.9564 6.59844 10.9424 5.23438 12.0769L11.8309 15.2887ZM11.8309 15.2887L13.7363 13.1255M11.8309 15.2887L13.7363 13.1255M13.7363 13.1255L16.7799 9.67008L16.7992 9.64806M13.7363 13.1255L16.7992 9.64806M16.7992 9.64806L16.8169 9.62461M16.7992 9.64806L16.8169 9.62461M16.8169 9.62461C16.8748 9.54745 16.9324 9.51653 16.9687 9.50599C17.0017 9.49642 17.0358 9.49738 17.0759 9.51581C17.1199 9.53599 17.1823 9.58365 17.237 9.67831C17.2915 9.77257 17.3276 9.89672 17.3296 10.034M16.8169 9.62461L17.3296 10.034M17.3296 10.034C17.3296 10.2117 17.3268 10.2126 17.3246 10.2134C17.3242 10.2135 17.3239 10.2136 17.3236 10.2144C17.3034 10.2655 17.2329 10.3956 16.9537 10.7554C16.6373 11.1631 16.1311 11.7703 15.3094 12.7558C14.7138 13.4704 13.9524 14.3837 12.9773 15.5641L17.3296 10.034ZM5.98438 16.3028V12.4427L12.9771 15.5643C12.5669 16.0602 12.045 16.3025 11.5388 16.3028H5.98438Z" stroke="#3D523D" stroke-width="1.5"/>
<mask id="path-4-inside-1_1086_9245" fill="white">
<path d="M12.8166 11.3341C12.8166 11.3341 12.8238 11.3125 12.8166 11.3341V11.3341ZM17.6871 9.04053C17.5836 9.55021 17.7157 9.27809 13.1984 14.7464C12.6635 15.3932 11.9385 15.7567 11.1824 15.7571H5.23438V17.0529H11.5392C12.2953 17.0525 13.0203 16.689 13.5552 16.0422L17.7656 10.9454C17.8695 10.8176 17.9503 10.6651 18.0029 10.4976C18.0556 10.33 18.079 10.1511 18.0716 9.97209C18.0642 9.79307 18.0262 9.61784 17.9601 9.4575C17.8939 9.29715 17.8009 9.15517 17.6871 9.04053Z"/>
</mask>
<path d="M13.1984 14.7464L14.3543 15.7023L14.3549 15.7017L13.1984 14.7464ZM11.1824 15.7571V17.2571L11.1833 17.2571L11.1824 15.7571ZM5.23438 15.7571V14.2571H3.73438V15.7571H5.23438ZM5.23438 17.0529H3.73438V18.5529H5.23438V17.0529ZM11.5392 17.0529V18.5529H11.5401L11.5392 17.0529ZM13.5552 16.0422L14.7112 16.9981L14.7117 16.9975L13.5552 16.0422ZM17.7656 10.9454L18.9221 11.9007L18.9297 11.8913L17.7656 10.9454ZM12.8166 11.3341C14.2409 11.8047 14.2409 11.8047 14.2409 11.8047C14.2409 11.8047 14.2409 11.8047 14.2409 11.8047C14.2409 11.8047 14.2409 11.8047 14.2409 11.8047C14.2409 11.8047 14.2409 11.8047 14.2409 11.8047C14.2409 11.8047 14.2409 11.8047 14.2409 11.8047C14.2409 11.8047 14.2409 11.8047 14.2409 11.8047C14.2414 11.8032 14.2405 11.806 14.241 11.8045C14.2411 11.8041 14.241 11.8044 14.2412 11.8038C14.2418 11.8019 14.2408 11.8049 14.2415 11.8029C14.244 11.7953 14.2391 11.8101 14.2416 11.8026C14.2418 11.8021 14.2415 11.8028 14.2417 11.8023C14.2417 11.8021 14.2417 11.8021 14.2418 11.802C14.242 11.8014 14.2417 11.8022 14.2419 11.8017C14.2431 11.7979 14.2424 11.8 14.2436 11.7966C14.2438 11.796 14.2435 11.7967 14.2437 11.7961C14.2439 11.7956 14.2436 11.7965 14.2438 11.796C14.2438 11.796 14.2438 11.796 14.2438 11.796C14.2438 11.796 14.2438 11.796 14.2438 11.796C14.2438 11.7959 14.2438 11.796 14.2438 11.7959C14.2438 11.7959 14.2438 11.7959 14.2438 11.7959C14.2438 11.7958 14.2438 11.7959 14.2438 11.7958C14.2438 11.7958 14.2438 11.7958 14.2439 11.7957C14.2439 11.7957 14.2439 11.7957 14.2439 11.7957C14.2439 11.7956 14.2439 11.7957 14.2439 11.7956C14.2439 11.7955 14.2439 11.7956 14.2439 11.7955C14.244 11.7953 14.2439 11.7957 14.244 11.7954C14.244 11.7953 14.244 11.7953 14.244 11.7952C14.2441 11.7951 14.244 11.7952 14.2441 11.7951C14.2441 11.7951 14.2441 11.7951 14.2441 11.7951C14.2441 11.7951 14.2441 11.7951 14.2441 11.7951C14.2441 11.7951 14.2441 11.7951 14.2441 11.7951C13.2904 9.90023 11.3955 10.8539 11.3955 10.8539C11.3955 10.8539 11.3955 10.8539 11.3955 10.8539C11.3955 10.8539 11.3955 10.8539 11.3955 10.8539C11.3955 10.8539 11.3955 10.8539 11.3955 10.8539C11.3949 10.8558 11.3961 10.8521 11.3955 10.8541C11.3954 10.8544 11.3955 10.854 11.3954 10.8544C11.3953 10.8546 11.3939 10.8589 11.3924 10.8635L14.2409 11.8047C14.2441 11.7951 14.2422 11.8009 14.2439 11.7956C14.2441 11.7951 14.2439 11.7957 14.244 11.7953C14.244 11.7952 14.244 11.7953 14.244 11.7952C14.244 11.7952 14.244 11.7952 14.244 11.7952C14.244 11.7952 14.244 11.7952 14.244 11.7952C14.244 11.7952 14.244 11.7952 14.244 11.7952C14.244 11.7952 14.244 11.7952 14.244 11.7952C14.2441 11.7951 14.244 11.7952 14.2441 11.7951C14.2441 11.7951 14.2441 11.7951 14.2441 11.7951C14.2441 11.7951 14.2441 11.7951 14.2441 11.7951C14.2441 11.7951 14.2441 11.7951 14.2441 11.7951C14.2441 11.7951 14.2441 11.7951 14.2441 11.7951C14.2441 11.7951 14.2441 11.7951 14.2441 11.7951C14.2441 11.7951 14.2441 11.7951 14.2441 11.7951C14.2441 11.7951 14.2441 11.7951 14.2441 11.7951C14.2441 11.7951 12.3492 12.7488 11.3955 10.8539C11.3955 10.8539 11.3955 10.8539 11.3955 10.8539C11.3955 10.8539 11.3955 10.8539 11.3955 10.8539C11.3955 10.8539 11.3955 10.8539 11.3955 10.8539C11.3955 10.8539 11.3955 10.8539 11.3955 10.8539C11.3955 10.8539 11.3955 10.8539 11.3955 10.854C11.3955 10.8541 11.3955 10.8541 11.3954 10.8542C11.3954 10.8544 11.3955 10.854 11.3954 10.8543C11.3954 10.8543 11.3954 10.8543 11.3954 10.8543C11.3954 10.8544 11.3954 10.8544 11.3953 10.8545C11.3941 10.8582 11.3965 10.8509 11.3953 10.8547C11.3949 10.8557 11.3955 10.8539 11.3952 10.8549C11.3951 10.8551 11.3951 10.8551 11.395 10.8554C11.395 10.8557 11.3936 10.8598 11.3934 10.8604C11.3934 10.8605 11.3932 10.861 11.3932 10.861C11.3929 10.8619 11.3932 10.8608 11.393 10.8616C11.3906 10.8689 11.395 10.8554 11.3927 10.8626C11.3925 10.8631 11.3926 10.8628 11.3925 10.8632C11.3924 10.8635 11.3925 10.8631 11.3924 10.8633C11.3924 10.8633 11.3924 10.8633 11.3924 10.8633C11.3924 10.8633 11.3924 10.8633 11.3924 10.8633C11.3924 10.8633 11.3924 10.8634 11.3924 10.8634C11.3924 10.8635 11.3924 10.8633 11.3924 10.8634C11.3924 10.8634 11.3924 10.8634 11.3924 10.8635C11.3924 10.8635 11.3924 10.8634 11.3924 10.8635C11.3924 10.8635 11.3924 10.8635 11.3924 10.8635C11.3924 10.8635 11.3924 10.8635 11.3924 10.8635C11.3924 10.8635 11.3924 10.8635 11.3924 10.8635C11.3924 10.8635 11.3924 10.8635 12.8166 11.3341ZM16.2171 8.74209C16.1871 8.88982 16.2107 8.74985 16.2646 8.65237C16.2711 8.64067 16.2598 8.66301 16.2011 8.74344C16.1438 8.82182 16.0583 8.93273 15.9276 9.09566C15.3915 9.7644 14.3182 11.0356 12.042 13.791L14.3549 15.7017C16.5959 12.9888 17.7152 11.662 18.2682 10.9723C18.5315 10.644 18.7461 10.3644 18.8901 10.1038C19.0895 9.74317 19.1354 9.44608 19.1571 9.33897L16.2171 8.74209ZM12.0425 13.7904C11.7569 14.1358 11.438 14.2569 11.1816 14.2571L11.1833 17.2571C12.439 17.2564 13.5701 16.6506 14.3543 15.7023L12.0425 13.7904ZM11.1824 14.2571H5.23438V17.2571H11.1824V14.2571ZM3.73438 15.7571V17.0529H6.73438V15.7571H3.73438ZM5.23438 18.5529H11.5392V15.5529H5.23438V18.5529ZM11.5401 18.5529C12.7958 18.5522 13.927 17.9464 14.7112 16.9981L12.3993 15.0862C12.1137 15.4316 11.7948 15.5527 11.5384 15.5529L11.5401 18.5529ZM14.7117 16.9975L18.9221 11.9007L16.6092 9.99003L12.3988 15.0868L14.7117 16.9975ZM18.9297 11.8913C19.1608 11.6069 19.3282 11.2836 19.4339 10.9475L16.572 10.0477C16.5723 10.0466 16.5781 10.0282 16.6015 9.9994L18.9297 11.8913ZM19.4339 10.9475C19.5396 10.6112 19.5847 10.259 19.5703 9.91033L16.5729 10.0339C16.573 10.0379 16.5728 10.0417 16.5724 10.0448C16.572 10.0478 16.5716 10.0489 16.572 10.0477L19.4339 10.9475ZM19.5703 9.91033C19.556 9.56173 19.482 9.21319 19.3466 8.88522L16.5735 10.0298C16.5718 10.0256 16.5716 10.0241 16.5719 10.0255C16.5722 10.0269 16.5727 10.0298 16.5729 10.0339L19.5703 9.91033ZM19.3466 8.88522C19.2113 8.55735 19.0133 8.24724 18.7515 7.98364L16.6227 10.0974C16.5886 10.0631 16.5765 10.037 16.5735 10.0298L19.3466 8.88522Z" fill="#3D523D" mask="url(#path-4-inside-1_1086_9245)"/>
<path d="M2.4165 11.3237H4.48462V17.1666H2.4165V11.3237Z" stroke="#3D523D" stroke-width="1.5"/>
<mask id="path-7-inside-2_1086_9245" fill="white">
<path d="M12.1391 13.5972H9.01697C8.92234 13.5972 8.83158 13.5517 8.76466 13.4707C8.69775 13.3897 8.66016 13.2798 8.66016 13.1653C8.66016 13.0507 8.69775 12.9409 8.76466 12.8599C8.83158 12.7789 8.92234 12.7333 9.01697 12.7333H12.1391C12.3283 12.7333 12.5099 12.6423 12.6437 12.4803C12.7775 12.3183 12.8527 12.0986 12.8527 11.8695C12.8527 11.6404 12.7775 11.4206 12.6437 11.2586C12.5099 11.0966 12.3283 11.0056 12.1391 11.0056C12.2869 11.0084 12.4327 11.0482 12.5671 11.1225C12.7016 11.1969 12.8219 11.3041 12.9205 11.4375C13.0574 11.6227 13.1474 11.8516 13.1798 12.097C13.2122 12.3424 13.1856 12.5938 13.1033 12.8214C13.0209 13.0491 12.8862 13.2432 12.7153 13.3807C12.5443 13.5183 12.3443 13.5934 12.1391 13.5972Z"/>
</mask>
<path d="M12.1391 11.0056V9.50562L12.111 12.5054L12.1391 11.0056ZM12.9205 11.4375L11.7139 12.3287L11.7142 12.3291L12.9205 11.4375ZM12.1391 12.0972H9.01697V15.0972H12.1391V12.0972ZM9.01697 12.0972C9.42273 12.0972 9.73861 12.2945 9.92111 12.5154L7.60822 14.426C7.92455 14.8089 8.42194 15.0972 9.01697 15.0972V12.0972ZM9.92111 12.5154C10.0968 12.7281 10.1602 12.9649 10.1602 13.1653H7.16016C7.16016 13.5948 7.29865 14.0513 7.60822 14.426L9.92111 12.5154ZM10.1602 13.1653C10.1602 13.3657 10.0968 13.6024 9.92111 13.8152L7.60822 11.9045C7.29865 12.2793 7.16016 12.7358 7.16016 13.1653H10.1602ZM9.92111 13.8152C9.73861 14.0361 9.42273 14.2333 9.01697 14.2333V11.2333C8.42194 11.2333 7.92455 11.5216 7.60822 11.9045L9.92111 13.8152ZM9.01697 14.2333H12.1391V11.2333H9.01697V14.2333ZM12.1391 14.2333C12.8287 14.2333 13.4169 13.8996 13.8001 13.4356L11.4872 11.525C11.6028 11.3851 11.8279 11.2333 12.1391 11.2333V14.2333ZM13.8001 13.4356C14.1766 12.9799 14.3527 12.4136 14.3527 11.8695H11.3527C11.3527 11.7836 11.3784 11.6567 11.4872 11.525L13.8001 13.4356ZM14.3527 11.8695C14.3527 11.3254 14.1766 10.7591 13.8001 10.3033L11.4872 12.214C11.3784 12.0822 11.3527 11.9553 11.3527 11.8695H14.3527ZM13.8001 10.3033C13.4169 9.83939 12.8287 9.50562 12.1391 9.50562V12.5056C11.8279 12.5056 11.6028 12.3539 11.4872 12.214L13.8001 10.3033ZM12.111 12.5054C12.0048 12.5034 11.9121 12.4744 11.8415 12.4353L13.2928 9.80974C12.9532 9.62201 12.569 9.5134 12.1671 9.50588L12.111 12.5054ZM11.8415 12.4353C11.7726 12.3972 11.7332 12.3548 11.7139 12.3287L14.127 10.5464C13.9107 10.2534 13.6307 9.9965 13.2928 9.80974L11.8415 12.4353ZM11.7142 12.3291C11.7007 12.3109 11.6951 12.2982 11.6933 12.2935C11.6915 12.2888 11.6921 12.2889 11.6927 12.2934L14.6668 11.9006C14.6038 11.4229 14.4258 10.9506 14.1268 10.546L11.7142 12.3291ZM11.6927 12.2934C11.6933 12.2979 11.6934 12.3033 11.6928 12.3083C11.6923 12.3134 11.6915 12.3145 11.6927 12.3111L14.5138 13.3318C14.6798 12.8729 14.73 12.3787 14.6668 11.9006L11.6927 12.2934ZM11.6927 12.3111C11.6939 12.3078 11.7102 12.2642 11.775 12.2121L13.6556 14.5494C14.0623 14.2222 14.3479 13.7903 14.5138 13.3318L11.6927 12.3111ZM11.775 12.2121C11.8441 12.1565 11.9605 12.1003 12.1114 12.0975L12.1668 15.097C12.7282 15.0866 13.2446 14.8801 13.6556 14.5494L11.775 12.2121Z" fill="#3D523D" mask="url(#path-7-inside-2_1086_9245)"/>
</svg>
