<svg viewBox="0 0 48 49" fill="none" xmlns="http://www.w3.org/2000/svg">
<path d="M30.0769 18.8991L23.6514 14.6154H24.6923H25.1923V14.1154V6H34.9615V14.1154V14.6154H35.4615H36.5025L30.0769 18.8991Z" stroke="#3D523D"/>
<path d="M28.9478 14.2026C28.8809 14.2022 28.8153 14.1838 28.758 14.1493C28.7007 14.1148 28.6538 14.0654 28.6222 14.0064C28.5906 13.9474 28.5755 13.881 28.5785 13.8141C28.5816 13.7473 28.6026 13.6825 28.6394 13.6266L31.6123 9.16723C31.6704 9.09512 31.7533 9.04729 31.8448 9.03311C31.9363 9.01893 32.0298 9.03942 32.107 9.09057C32.1842 9.14171 32.2395 9.21983 32.2621 9.30962C32.2847 9.39941 32.273 9.49441 32.2292 9.576C29.0333 14.3735 29.2303 14.2026 28.9478 14.2026ZM31.9207 14.2026C31.7003 14.2026 31.4847 14.1372 31.3014 14.0147C31.118 13.8922 30.9752 13.7181 30.8908 13.5144C30.8064 13.3107 30.7843 13.0865 30.8273 12.8702C30.8703 12.654 30.9765 12.4553 31.1324 12.2994C31.2884 12.1435 31.487 12.0373 31.7033 11.9943C31.9195 11.9513 32.1437 11.9734 32.3474 12.0578C32.5511 12.1421 32.7252 12.285 32.8477 12.4684C32.9702 12.6517 33.0356 12.8672 33.0356 13.0877C33.0356 13.3834 32.9181 13.667 32.7091 13.876C32.5 14.0851 32.2164 14.2026 31.9207 14.2026ZM31.9207 12.7161C31.8222 12.7161 31.7277 12.7553 31.658 12.825C31.5883 12.8947 31.5491 12.9892 31.5491 13.0877C31.5491 13.1863 31.5883 13.2808 31.658 13.3505C31.7277 13.4202 31.8222 13.4594 31.9207 13.4594C32.0193 13.4594 32.1138 13.4202 32.1835 13.3505C32.2532 13.2808 32.2924 13.1863 32.2924 13.0877C32.2924 12.9892 32.2532 12.8947 32.1835 12.825C32.1138 12.7553 32.0193 12.7161 31.9207 12.7161ZM28.9478 11.2297C28.7274 11.2297 28.5118 11.1643 28.3285 11.0418C28.1451 10.9193 28.0022 10.7452 27.9179 10.5415C27.8335 10.3378 27.8114 10.1136 27.8544 9.89734C27.8974 9.68109 28.0036 9.48244 28.1595 9.32653C28.3154 9.17062 28.5141 9.06444 28.7304 9.02142C28.9466 8.97841 29.1708 9.00048 29.3745 9.08486C29.5782 9.16924 29.7523 9.31213 29.8748 9.49547C29.9973 9.6788 30.0627 9.89434 30.0627 10.1148C30.0627 10.4105 29.9452 10.6941 29.7362 10.9031C29.5271 11.1122 29.2435 11.2297 28.9478 11.2297ZM28.9478 9.74323C28.8493 9.74323 28.7548 9.78238 28.6851 9.85207C28.6154 9.92176 28.5762 10.0163 28.5762 10.1148C28.5762 10.2134 28.6154 10.3079 28.6851 10.3776C28.7548 10.4473 28.8493 10.4865 28.9478 10.4865C29.0464 10.4865 29.1409 10.4473 29.2106 10.3776C29.2803 10.3079 29.3195 10.2134 29.3195 10.1148C29.3195 10.0163 29.2803 9.92176 29.2106 9.85207C29.1409 9.78238 29.0464 9.74323 28.9478 9.74323Z" fill="#3D523D"/>
<path d="M30.2747 33.4705L30.8842 30.653C30.9635 30.2865 30.9725 29.9011 30.91 29.5287C30.8474 29.1562 30.7164 28.8141 30.5337 28.5274C30.3512 28.2409 30.1255 28.0224 29.8824 27.8776C29.6407 27.7337 29.3851 27.6641 29.1335 27.6638C29.1334 27.6638 29.1333 27.6638 29.1332 27.6638L29.1338 26.9138C27.5449 26.9138 26.1373 26.8955 24.877 26.8791C18.4278 26.7954 15.8372 26.7617 12.5635 29.4847L30.2747 33.4705ZM30.2747 33.4705L32.18 31.3073L39.4847 23.0142L39.5041 22.9922L39.5217 22.9687C39.782 22.622 40.1043 22.4015 40.4333 22.306C40.7588 22.2115 41.0999 22.2361 41.4214 22.3837C41.7466 22.5331 42.0518 22.8095 42.279 23.2026C42.5058 23.5951 42.6362 24.0736 42.642 24.5751C42.642 24.5916 42.642 24.6076 42.642 24.6232C42.6422 25.0454 42.6422 25.1778 42.5539 25.4009C42.4441 25.6784 42.187 26.0965 41.5193 26.9567C40.7498 27.9481 39.5161 29.4281 37.5263 31.815C36.0961 33.5307 34.2753 35.7149 31.9556 38.523C30.7964 39.9246 29.2594 40.6759 27.6947 40.6767H13.3135V29.8417L30.2747 33.4705Z" stroke="#3D523D" stroke-width="1.5"/>
<mask id="path-4-inside-1_1211_8633" fill="white">
<path d="M30.7609 27.7016C30.7609 27.7016 30.778 27.6497 30.7609 27.7016V27.7016ZM42.4501 22.197C42.2017 23.4203 42.5186 22.7672 31.6772 35.891C30.3934 37.4434 28.6533 38.3158 26.8388 38.3168H12.5635V41.4267H27.6952C29.5097 41.4257 31.2498 40.5533 32.5335 39.001L42.6385 26.7686C42.8877 26.4619 43.0816 26.096 43.208 25.6939C43.3344 25.2919 43.3905 24.8624 43.3728 24.4328C43.3551 24.0031 43.264 23.5826 43.1051 23.1977C42.9463 22.8129 42.7232 22.4722 42.4501 22.197Z"/>
</mask>
<path d="M31.6772 35.891L32.8331 36.847L32.8336 36.8464L31.6772 35.891ZM26.8388 38.3168V39.8168L26.8397 39.8168L26.8388 38.3168ZM12.5635 38.3168V36.8168H11.0635V38.3168H12.5635ZM12.5635 41.4267H11.0635V42.9267H12.5635V41.4267ZM27.6952 41.4267V42.9267H27.696L27.6952 41.4267ZM32.5335 39.001L33.6895 39.9569L33.69 39.9563L32.5335 39.001ZM42.6385 26.7686L43.7949 27.724L43.8026 27.7146L42.6385 26.7686ZM30.7609 27.7016C32.1852 28.1722 32.1852 28.1722 32.1852 28.1722C32.1852 28.1722 32.1852 28.1722 32.1852 28.1722C32.1852 28.1722 32.1852 28.1722 32.1852 28.1722C32.1852 28.1722 32.1852 28.1722 32.1852 28.1722C32.1852 28.1721 32.1851 28.1722 32.1852 28.1722C32.1852 28.172 32.1851 28.1723 32.1852 28.1721C32.1852 28.1721 32.1852 28.1721 32.1852 28.1721C32.1853 28.1719 32.1851 28.1723 32.1852 28.1721C32.1852 28.172 32.1852 28.172 32.1852 28.172C32.1853 28.1719 32.1852 28.172 32.1853 28.1719C32.1853 28.1717 32.1853 28.1719 32.1853 28.1716C32.1854 28.1714 32.1857 28.1706 32.1859 28.1701C32.1869 28.167 32.1855 28.1711 32.1866 28.1678C32.1879 28.1639 32.1858 28.1703 32.1871 28.1664C32.1872 28.1661 32.1872 28.1659 32.1873 28.1657C32.1876 28.1649 32.1872 28.1661 32.1874 28.1653C32.1874 28.1653 32.1875 28.1652 32.1875 28.1652C32.1875 28.1652 32.1875 28.1651 32.1875 28.1651C32.1878 28.1642 32.1873 28.1658 32.1876 28.1649C32.1879 28.1638 32.1877 28.1645 32.1881 28.1634C32.1881 28.1633 32.1883 28.1626 32.1883 28.1626C32.1888 28.1611 32.188 28.1636 32.1885 28.1622C32.1885 28.1621 32.1885 28.1621 32.1885 28.162C32.1889 28.1609 32.1883 28.1628 32.1886 28.1618C32.1907 28.1555 32.1876 28.1648 32.1897 28.1585C32.1915 28.1531 32.19 28.1577 32.1916 28.1528C32.1925 28.1499 32.1914 28.1533 32.1923 28.1507C32.1924 28.1503 32.1924 28.1502 32.1925 28.1499C32.1941 28.1452 32.191 28.1545 32.1926 28.1498C32.1926 28.1497 32.1926 28.1497 32.1926 28.1497C32.1926 28.1496 32.1926 28.1497 32.1926 28.1496C32.1927 28.1494 32.1926 28.1496 32.1927 28.1494C32.1927 28.1494 32.1927 28.1493 32.1927 28.1493C32.1927 28.1492 32.1927 28.1493 32.1927 28.1492C32.1927 28.1492 32.1927 28.1492 32.1927 28.1492C32.1928 28.1492 32.1927 28.1492 32.1928 28.1492C32.1928 28.1492 32.1928 28.1492 32.1928 28.1492C32.1928 28.1492 32.1928 28.1492 32.1928 28.1492C32.1928 28.1492 32.1928 28.1492 32.1928 28.1492C31.2391 26.2543 29.3442 27.2079 29.3442 27.2079C29.3442 27.2079 29.3442 27.2079 29.3442 27.2079C29.3442 27.2079 29.3442 27.2079 29.3442 27.208C29.344 27.2086 29.3444 27.2075 29.3442 27.2081C29.3442 27.2082 29.3441 27.2083 29.3441 27.2084C29.344 27.2086 29.344 27.2087 29.3439 27.2091C29.3417 27.2155 29.3444 27.2073 29.3416 27.2161C29.3395 27.2222 29.3417 27.2156 29.3395 27.2224C29.3385 27.2253 29.3378 27.2273 29.3366 27.231L32.1852 28.1722C32.2183 28.072 32.1628 28.24 32.1924 28.1503C32.1926 28.1497 32.1927 28.1494 32.1927 28.1492C32.1927 28.1492 32.1927 28.1492 32.1927 28.1492C32.1927 28.1492 32.1927 28.1492 32.1928 28.1492C32.1928 28.1492 32.1928 28.1492 32.1928 28.1492C32.1928 28.1492 32.1928 28.1492 32.1928 28.1492C32.1928 28.1492 32.1928 28.1492 32.1928 28.1492C32.1928 28.1492 30.2979 29.1028 29.3442 27.2079C29.3442 27.2079 29.3442 27.2079 29.3442 27.2079C29.3442 27.2079 29.3442 27.2079 29.3442 27.2079C29.3442 27.2079 29.3442 27.2079 29.3442 27.2079C29.3442 27.2079 29.3442 27.2079 29.3442 27.2079C29.3442 27.2079 29.3442 27.2079 29.3442 27.2079C29.344 27.2088 29.3445 27.2071 29.3442 27.208C29.3442 27.2081 29.3442 27.208 29.3442 27.2082C29.3433 27.2108 29.3443 27.2078 29.3431 27.2115C29.3402 27.2201 29.3441 27.2082 29.3412 27.2173C29.3384 27.2257 29.3418 27.2154 29.339 27.2237C29.337 27.2299 29.3392 27.2233 29.3373 27.2288C29.3362 27.2323 29.3379 27.2272 29.3368 27.2304C29.3366 27.231 29.3369 27.2303 29.3367 27.2308C29.3367 27.2309 29.3367 27.2308 29.3366 27.2309C29.3366 27.2309 29.3366 27.2309 29.3366 27.2309C29.3366 27.231 29.3366 27.2309 29.3366 27.2309C29.3366 27.2309 29.3366 27.231 29.3366 27.231C29.3366 27.231 29.3366 27.231 29.3366 27.231C29.3366 27.231 29.3366 27.231 29.3366 27.231C29.3366 27.231 29.3366 27.231 30.7609 27.7016ZM40.98 21.8986C40.9138 22.2247 40.9218 22.1947 40.8739 22.2815C40.7705 22.4684 40.5283 22.8166 39.8657 23.643C38.5671 25.2626 35.959 28.3525 30.5207 34.9357L32.8336 36.8464C38.2367 30.3057 40.8909 27.1602 42.2063 25.5196C42.8507 24.7158 43.2535 24.1777 43.4993 23.733C43.8006 23.188 43.8621 22.781 43.9201 22.4955L40.98 21.8986ZM30.5213 34.9351C29.4868 36.186 28.1528 36.816 26.838 36.8168L26.8397 39.8168C29.1539 39.8155 31.3 38.7008 32.8331 36.847L30.5213 34.9351ZM26.8388 36.8168H12.5635V39.8168H26.8388V36.8168ZM11.0635 38.3168V41.4267H14.0635V38.3168H11.0635ZM12.5635 42.9267H27.6952V39.9267H12.5635V42.9267ZM27.696 42.9267C30.0102 42.9254 32.1564 41.8107 33.6895 39.9569L31.3776 38.045C30.3431 39.2959 29.0092 39.926 27.6943 39.9267L27.696 42.9267ZM33.69 39.9563L43.7949 27.7239L41.482 25.8133L31.3771 38.0456L33.69 39.9563ZM43.8026 27.7146C44.179 27.2513 44.4595 26.7144 44.639 26.1438L41.7771 25.244C41.7037 25.4775 41.5963 25.6726 41.4743 25.8226L43.8026 27.7146ZM44.639 26.1438C44.8184 25.573 44.8963 24.9703 44.8716 24.371L41.8741 24.4945C41.8848 24.7546 41.8504 25.0107 41.7771 25.244L44.639 26.1438ZM44.8716 24.371C44.8469 23.7718 44.7197 23.1779 44.4917 22.6255L41.7186 23.77C41.8083 23.9872 41.8634 24.2344 41.8741 24.4945L44.8716 24.371ZM44.4917 22.6255C44.2637 22.0731 43.9356 21.5642 43.5145 21.1401L41.3856 23.2539C41.5109 23.3801 41.6289 23.5527 41.7186 23.77L44.4917 22.6255Z" fill="#3D523D" mask="url(#path-4-inside-1_1211_8633)"/>
<path d="M4.75 26.6272H11.8135V42.7501H4.75V26.6272Z" stroke="#3D523D" stroke-width="1.5"/>
<path d="M29.1341 31.8104C29.7143 31.8104 30.2501 31.5798 30.6702 31.1969C30.5149 31.5448 30.2972 31.8283 30.0468 32.0298C29.7584 32.2618 29.4389 32.3765 29.1264 32.3837H21.6482C21.6432 32.3809 21.6303 32.3725 21.6137 32.3524L21.0405 32.8259L21.6137 32.3524C21.5744 32.3048 21.5347 32.2145 21.5347 32.097C21.5347 31.9796 21.5744 31.8892 21.6137 31.8417L21.0405 31.3682L21.6137 31.8417C21.6303 31.8215 21.6432 31.8132 21.6482 31.8104H29.1341Z" stroke="#3D523D" stroke-width="1.5"/>
</svg>
