<svg width="20" height="20" viewBox="0 0 20 20" fill="none" xmlns="http://www.w3.org/2000/svg">
    <path
        d="M11.5225 20H7.88252C7.41268 20 7.00611 19.673 6.90556 19.214L6.49855 17.33C5.9556 17.0921 5.44078 16.7946 4.96355 16.443L3.12655 17.028C2.67855 17.1709 2.19154 16.9823 1.95655 16.575L0.132554 13.424C-0.099856 13.0165 -0.019786 12.5025 0.325554 12.185L1.75055 10.885C1.68575 10.2961 1.68575 9.7019 1.75055 9.113L0.325554 7.816C-0.0202959 7.49837 -0.100396 6.98372 0.132554 6.576L1.95255 3.423C2.18754 3.0157 2.67455 2.82714 3.12255 2.97L4.95955 3.555C5.20361 3.37416 5.45768 3.20722 5.72055 3.055C5.97289 2.91269 6.23259 2.78385 6.49855 2.669L6.90655 0.787C7.00662 0.32797 7.41275 0.00049 7.88252 0H11.5225C11.9924 0.00049 12.3985 0.32797 12.4985 0.787L12.9105 2.67C13.1913 2.79352 13.4648 2.93308 13.7295 3.088C13.9765 3.23081 14.2152 3.38739 14.4445 3.557L16.2825 2.972C16.7302 2.82967 17.2167 3.01816 17.4515 3.425L19.2715 6.578C19.504 6.98548 19.4239 7.49951 19.0785 7.817L17.6535 9.117C17.7183 9.7059 17.7183 10.3001 17.6535 10.889L19.0785 12.189C19.4239 12.5065 19.504 13.0205 19.2715 13.428L17.4515 16.581C17.2167 16.9878 16.7302 17.1763 16.2825 17.034L14.4445 16.449C14.212 16.6203 13.9703 16.7789 13.7205 16.924C13.4584 17.0759 13.1879 17.2131 12.9105 17.335L12.4985 19.214C12.3981 19.6726 11.992 19.9996 11.5225 20ZM5.32255 14.229L6.14255 14.829C6.3274 14.9652 6.52007 15.0904 6.71956 15.204C6.90726 15.3127 7.10052 15.4115 7.29855 15.5L8.23151 15.909L8.68851 18H10.7185L11.1755 15.908L12.1085 15.499C12.5158 15.3194 12.9024 15.0961 13.2615 14.833L14.0825 14.233L16.1235 14.883L17.1385 13.125L15.5555 11.682L15.6675 10.67C15.7167 10.2274 15.7167 9.7806 15.6675 9.338L15.5555 8.326L17.1395 6.88L16.1235 5.121L14.0825 5.771L13.2615 5.171C12.9023 4.90671 12.5158 4.68175 12.1085 4.5L11.1755 4.091L10.7185 2H8.68851L8.22952 4.092L7.29855 4.5C7.10036 4.58704 6.90708 4.68486 6.71956 4.793C6.5213 4.90633 6.32964 5.03086 6.14556 5.166L5.32455 5.766L3.28455 5.116L2.26755 6.88L3.85055 8.321L3.73855 9.334C3.68935 9.7766 3.68935 10.2234 3.73855 10.666L3.85055 11.678L2.26755 13.121L3.28255 14.879L5.32255 14.229ZM9.69851 14C7.48941 14 5.69855 12.2091 5.69855 10C5.69855 7.79086 7.48941 6 9.69851 6C11.9077 6 13.6985 7.79086 13.6985 10C13.6958 12.208 11.9065 13.9972 9.69851 14ZM9.69851 8C8.60592 8.0011 7.71641 8.8788 7.70079 9.9713C7.68513 11.0638 8.54911 11.9667 9.64121 11.9991C10.7334 12.0315 11.6494 11.1815 11.6985 10.09V10.49V10C11.6985 8.8954 10.8031 8 9.69851 8Z"
        fill="#8ABE96" />
</svg>
