<svg viewBox="0 0 20 20" fill="none" xmlns="http://www.w3.org/2000/svg">
<path d="M7.1115 10.0584C7.21396 10.0147 7.32414 9.992 7.43553 9.99158C7.54692 9.99117 7.65726 10.0131 7.76003 10.0561C7.8628 10.0991 7.9559 10.1622 8.03385 10.2417C8.1118 10.3213 8.173 10.4157 8.21385 10.5193C8.25469 10.623 8.27434 10.7337 8.27163 10.8451C8.26893 10.9565 8.24392 11.0662 8.1981 11.1677C8.15228 11.2692 8.08657 11.3605 8.00485 11.4362C7.92314 11.5119 7.82707 11.5705 7.72234 11.6084C7.16529 11.8279 6.6872 12.21 6.35025 12.7049C6.01332 13.1998 5.83315 13.7847 5.83317 14.3834V15.8334C5.83317 16.0544 5.92097 16.2664 6.07725 16.4227C6.23353 16.5789 6.44549 16.6667 6.6665 16.6667H13.3332C13.5542 16.6667 13.7662 16.5789 13.9224 16.4227C14.0787 16.2664 14.1665 16.0544 14.1665 15.8334V14.4609C14.1666 13.843 13.9789 13.2396 13.6283 12.7307C13.2777 12.2219 12.7807 11.8317 12.2032 11.6117C12.0978 11.5752 12.0008 11.5178 11.918 11.4431C11.8352 11.3683 11.7683 11.2777 11.7211 11.1767C11.674 11.0755 11.6476 10.966 11.6436 10.8545C11.6396 10.7431 11.6579 10.6319 11.6977 10.5277C11.7374 10.4234 11.7977 10.3282 11.8748 10.2477C11.9521 10.1672 12.0447 10.103 12.1471 10.0589C12.2496 10.0148 12.3598 9.99183 12.4714 9.99116C12.583 9.9905 12.6935 10.0122 12.7965 10.0551C13.6895 10.3952 14.4581 10.9987 15.0003 11.7855C15.5427 12.5723 15.8331 13.5053 15.8332 14.4609V15.8334C15.8332 16.4964 15.5698 17.1323 15.1009 17.6012C14.6321 18.07 13.9962 18.3334 13.3332 18.3334H6.6665C6.00346 18.3334 5.36758 18.07 4.89874 17.6012C4.4299 17.1323 4.1665 16.4964 4.1665 15.8334V14.3834C4.16662 13.4502 4.44757 12.5387 4.9728 11.7672C5.49805 10.9959 6.24325 10.4005 7.1115 10.0584ZM9.99984 1.66675C10.8839 1.66675 11.7318 2.01794 12.3568 2.64306C12.982 3.26818 13.3332 4.11602 13.3332 5.00008V6.66675C13.3332 7.55081 12.982 8.39866 12.3568 9.02375C11.7318 9.64891 10.8839 10.0001 9.99984 10.0001C9.11575 10.0001 8.26794 9.64891 7.64281 9.02375C7.0177 8.39866 6.6665 7.55081 6.6665 6.66675V5.00008C6.6665 4.11602 7.0177 3.26818 7.64281 2.64306C8.26794 2.01794 9.11575 1.66675 9.99984 1.66675ZM9.99984 3.33341C9.55784 3.33341 9.13392 3.50901 8.82134 3.82157C8.50875 4.13413 8.33317 4.55806 8.33317 5.00008V6.66675C8.33317 7.10877 8.50875 7.5327 8.82134 7.84526C9.13392 8.15782 9.55784 8.33341 9.99984 8.33341C10.4418 8.33341 10.8658 8.15782 11.1783 7.84526C11.4909 7.5327 11.6665 7.10877 11.6665 6.66675V5.00008C11.6665 4.55806 11.4909 4.13413 11.1783 3.82157C10.8658 3.50901 10.4418 3.33341 9.99984 3.33341Z" fill="#3D523D"/>
</svg>
